# xmcd
#
# Track frame offsets:
#	150
#	10296
#	26815
#	39668
#	52194
#	68419
#	87972
#	104382
#	115647
#	134045
#	147223
#	163355
#	177074
#	189635
#	205867
#
# Disc length: 2987 seconds
#
# Revision: 0
# Processed by: cddbd v1.5.2PL0 Copyright (c) Steve Scherf et al.
# Submitted via: EasyCDDAExtractor 12.0.3.1
#
DISCID=d70ba90f
DTITLE=Daniel Léger - Équilibre
DYEAR=2009
DGENRE=
TTITLE0=De l'autre côté
TTITLE1=Sur le chemin Joseph à Justin
TTITLE2=Les réfugiés de l'ile Beaubears (Boishébert)
TTITLE3=Station wagon
TTITLE4=Aimez-vous les uns sauf les autres
TTITLE5=Je pleure avec George Jones
TTITLE6=Les mêmes yeux
TTITLE7=Oui c'est non
TTITLE8=La raffinerie
TTITLE9=À Claire Fontaine
TTITLE10=Le fantôme de Jim Crow
TTITLE11=Salut p'tit cul
TTITLE12=Lady Di (La ri dy)
TTITLE13=Chanceux pareil
TTITLE14=Enfin retrouvés
EXTD=
EXTT0=
EXTT1=
EXTT2=
EXTT3=
EXTT4=
EXTT5=
EXTT6=
EXTT7=
EXTT8=
EXTT9=
EXTT10=
EXTT11=
EXTT12=
EXTT13=
EXTT14=
PLAYORDER=
